<svg id="Layer_1" data-name="Layer 1" xmlns="http://www.w3.org/2000/svg" viewBox="0 0 451.41 470.94">
    <defs>
        <style>.cls-1{fill:#740c10;stroke:#FF876C;stroke-miterlimit:10;stroke-width:5px;}</style>
    </defs>
    <title>heart</title>
    <path class="cls-1"
          d="M262,120c-12-12-20.39-18.38-30.9-24.48C206.8,81.42,181.71,81.58,173,82a112.86,112.86,0,0,0-53.15,16.85C87.37,119.2,75,151.34,68.36,168.44c-33.26,85.69.41,176.66,39,224.87,23.81,29.75,45.29,44,91.1,80.68,31.61,25.33,63.46,50.47,79.51,71.31a4.13,4.13,0,0,0,6.86.05c15.81-20.1,42.63-50.15,74.3-75.54,45.82-36.72,62.57-48.22,88.36-75.08,40.12-41.77,73.38-140.6,40.12-226.29-4.37-11.26-17-48.71-50.2-69.59a111.73,111.73,0,0,0-41.94-16.07c-8-1.29-29.25-4.39-52.54,4.65,0,0-24.35,9.17-47,33.41C293.67,123.26,281.14,138,279,138S269.87,127.87,262,120Z"
          transform="translate(-52.29 -78.71)"/>
</svg>